<mxfile host="app.diagrams.net" modified="2023-07-06T23:58:45.127Z" agent="Mozilla/5.0 (Windows NT 10.0; Win64; x64) AppleWebKit/537.36 (KHTML, like Gecko) Chrome/114.0.0.0 Safari/537.36" etag="daslDGETzl07bo-tjF3q" version="21.6.1" type="github">
  <diagram name="Página-1" id="fFq-9c7-PX-O4fi2H7aR">
    <mxGraphModel dx="937" dy="494" grid="1" gridSize="10" guides="1" tooltips="1" connect="1" arrows="1" fold="1" page="1" pageScale="1" pageWidth="827" pageHeight="1169" math="0" shadow="0">
      <root>
        <mxCell id="0" />
        <mxCell id="1" parent="0" />
        <mxCell id="ACMDoaVhNv-3SxOcbAQi-1" value="" style="rounded=0;whiteSpace=wrap;html=1;" vertex="1" parent="1">
          <mxGeometry x="80" y="40" width="720" height="440" as="geometry" />
        </mxCell>
        <mxCell id="ACMDoaVhNv-3SxOcbAQi-2" value="" style="rounded=0;whiteSpace=wrap;html=1;" vertex="1" parent="1">
          <mxGeometry x="90" y="50" width="120" height="420" as="geometry" />
        </mxCell>
        <mxCell id="ACMDoaVhNv-3SxOcbAQi-3" value="PESQUISA DE ACORDO COM O FILTRO" style="rounded=0;whiteSpace=wrap;html=1;" vertex="1" parent="1">
          <mxGeometry x="230" y="50" width="400" height="30" as="geometry" />
        </mxCell>
        <mxCell id="ACMDoaVhNv-3SxOcbAQi-4" value="" style="rounded=0;whiteSpace=wrap;html=1;" vertex="1" parent="1">
          <mxGeometry x="230" y="110" width="550" height="360" as="geometry" />
        </mxCell>
        <mxCell id="ACMDoaVhNv-3SxOcbAQi-6" value="" style="rounded=0;whiteSpace=wrap;html=1;" vertex="1" parent="1">
          <mxGeometry x="680" y="430" width="90" height="30" as="geometry" />
        </mxCell>
        <mxCell id="ACMDoaVhNv-3SxOcbAQi-7" value="&lt;font style=&quot;font-size: 15px;&quot;&gt;Exportar&lt;/font&gt;" style="text;html=1;strokeColor=none;fillColor=none;align=center;verticalAlign=middle;whiteSpace=wrap;rounded=0;" vertex="1" parent="1">
          <mxGeometry x="695" y="430" width="60" height="30" as="geometry" />
        </mxCell>
        <mxCell id="ACMDoaVhNv-3SxOcbAQi-9" value="SQL" style="text;html=1;strokeColor=none;fillColor=none;align=center;verticalAlign=middle;whiteSpace=wrap;rounded=0;" vertex="1" parent="1">
          <mxGeometry x="90" y="80" width="120" height="30" as="geometry" />
        </mxCell>
        <mxCell id="ACMDoaVhNv-3SxOcbAQi-10" value="Python" style="text;html=1;strokeColor=none;fillColor=none;align=center;verticalAlign=middle;whiteSpace=wrap;rounded=0;" vertex="1" parent="1">
          <mxGeometry x="90" y="110" width="120" height="30" as="geometry" />
        </mxCell>
        <mxCell id="ACMDoaVhNv-3SxOcbAQi-11" value="GIT" style="text;html=1;strokeColor=none;fillColor=none;align=center;verticalAlign=middle;whiteSpace=wrap;rounded=0;" vertex="1" parent="1">
          <mxGeometry x="90" y="140" width="120" height="30" as="geometry" />
        </mxCell>
        <mxCell id="ACMDoaVhNv-3SxOcbAQi-12" value="Java" style="text;html=1;strokeColor=none;fillColor=none;align=center;verticalAlign=middle;whiteSpace=wrap;rounded=0;" vertex="1" parent="1">
          <mxGeometry x="90" y="170" width="120" height="30" as="geometry" />
        </mxCell>
        <mxCell id="ACMDoaVhNv-3SxOcbAQi-15" style="edgeStyle=orthogonalEdgeStyle;rounded=0;orthogonalLoop=1;jettySize=auto;html=1;" edge="1" parent="1" source="ACMDoaVhNv-3SxOcbAQi-13" target="ACMDoaVhNv-3SxOcbAQi-14">
          <mxGeometry relative="1" as="geometry" />
        </mxCell>
        <mxCell id="ACMDoaVhNv-3SxOcbAQi-13" value="COMBOBOX" style="rounded=0;whiteSpace=wrap;html=1;" vertex="1" parent="1">
          <mxGeometry x="660" y="50" width="120" height="30" as="geometry" />
        </mxCell>
        <mxCell id="ACMDoaVhNv-3SxOcbAQi-14" value="COMBOBOX COM ALTERACAO DE PESQUISA" style="rounded=0;whiteSpace=wrap;html=1;" vertex="1" parent="1">
          <mxGeometry x="900" y="35" width="120" height="60" as="geometry" />
        </mxCell>
        <mxCell id="ACMDoaVhNv-3SxOcbAQi-16" value="C#" style="text;html=1;strokeColor=none;fillColor=none;align=center;verticalAlign=middle;whiteSpace=wrap;rounded=0;" vertex="1" parent="1">
          <mxGeometry x="90" y="50" width="120" height="30" as="geometry" />
        </mxCell>
        <mxCell id="ACMDoaVhNv-3SxOcbAQi-18" value="" style="rounded=0;whiteSpace=wrap;html=1;rotation=90;" vertex="1" parent="1">
          <mxGeometry x="610" y="260" width="300" height="20" as="geometry" />
        </mxCell>
        <mxCell id="ACMDoaVhNv-3SxOcbAQi-19" value="" style="rounded=0;whiteSpace=wrap;html=1;rotation=90;fillColor=#080808;" vertex="1" parent="1">
          <mxGeometry x="700" y="180" width="120" height="10" as="geometry" />
        </mxCell>
        <mxCell id="ACMDoaVhNv-3SxOcbAQi-20" value="" style="rounded=0;whiteSpace=wrap;html=1;" vertex="1" parent="1">
          <mxGeometry x="240" y="125" width="500" height="60" as="geometry" />
        </mxCell>
        <mxCell id="ACMDoaVhNv-3SxOcbAQi-21" value="" style="rounded=0;whiteSpace=wrap;html=1;" vertex="1" parent="1">
          <mxGeometry x="240" y="200" width="500" height="60" as="geometry" />
        </mxCell>
        <mxCell id="ACMDoaVhNv-3SxOcbAQi-22" value="" style="rounded=0;whiteSpace=wrap;html=1;" vertex="1" parent="1">
          <mxGeometry x="240" y="270" width="500" height="60" as="geometry" />
        </mxCell>
        <mxCell id="ACMDoaVhNv-3SxOcbAQi-23" value="" style="rounded=0;whiteSpace=wrap;html=1;" vertex="1" parent="1">
          <mxGeometry x="240" y="340" width="500" height="60" as="geometry" />
        </mxCell>
        <mxCell id="ACMDoaVhNv-3SxOcbAQi-24" value="&lt;font style=&quot;font-size: 15px;&quot;&gt;GIT&lt;/font&gt;" style="text;html=1;strokeColor=none;fillColor=none;align=center;verticalAlign=middle;whiteSpace=wrap;rounded=0;" vertex="1" parent="1">
          <mxGeometry x="240" y="140" width="60" height="30" as="geometry" />
        </mxCell>
        <mxCell id="ACMDoaVhNv-3SxOcbAQi-25" value="GIT ADD ." style="rounded=0;whiteSpace=wrap;html=1;" vertex="1" parent="1">
          <mxGeometry x="300" y="125" width="120" height="60" as="geometry" />
        </mxCell>
        <mxCell id="ACMDoaVhNv-3SxOcbAQi-26" value="Adiciona todos os arquivos já existente do diretório&amp;nbsp;&lt;br&gt;no Stage (Diretório temporário antes de enviar os dados&amp;nbsp;&lt;br&gt;para o commit.&amp;nbsp;" style="rounded=0;whiteSpace=wrap;html=1;" vertex="1" parent="1">
          <mxGeometry x="420" y="125" width="320" height="60" as="geometry" />
        </mxCell>
      </root>
    </mxGraphModel>
  </diagram>
</mxfile>
